<?xml version="1.0" encoding="utf-8"?>
<!-- Generator: Adobe Illustrator 21.0.2, SVG Export Plug-In . SVG Version: 6.00 Build 0)  -->
<svg version="1.1" id="圖層_1" xmlns="http://www.w3.org/2000/svg" xmlns:xlink="http://www.w3.org/1999/xlink" x="0px" y="0px"
	 viewBox="0 0 300 88" style="enable-background:new 0 0 300 88;" xml:space="preserve">
<style type="text/css">
	.st0{fill:#00DDDD;}
	.st1{fill:#FFFFFF;}
</style>
<g>
	<path class="st0" d="M38.6,45.1c5.6,1.5,10.7,6,13.3,8.8L48.3,57c-1.5-1.7-2.3-2.9-3.6-3.9L7.4,56.7L5,52.9
		c4.9-2.1,9.2-4.5,11.8-7.8H0v-4.4h52.1v4.4H38.6z M47.3,4.7v4.4H28.2l0.1,2.7h22.2l0.1,12.3h-4.7l-0.1-8H28.2v15.4h-4.8V16.2H6.1
		v8.5H1.3V11.9h22.2V9.2H4.3L4.2,4.7H47.3z M6.4,33h39.3l-0.1,4.4H6.4L6.4,33z M7.5,25.9l13.8,0.1l-0.1,3.7H7.5V25.9z M21.2,22.9
		H8.1V19L21.2,19V22.9z M22.7,45.1c-1.7,2.4-4.4,4.5-6.8,6.2l23.5-1.8c-0.7-0.4-2.6-1-5.5-1.8l2.9-2.6H22.7z M43.7,22.5l-13,0.1
		v-3.9h13V22.5z M30.8,25.6h13.6v3.8H30.8V25.6z"/>
	<path class="st0" d="M60,45.6c3.8-0.7,6.9-1.4,9.6-2.2c3.1-6.7,5.2-14.2,4.9-22.7l4.5,0.9c-0.2,7.7-1.7,14.7-4.2,20.3
		c1-0.2,2.9-0.7,5.3-1.4l0.1,4.4l-16.6,4.9L60,45.6z M61.3,18.5L61.3,14l19.1-0.1l0.1,4.5L61.3,18.5z M65.8,40.9
		c0.4-6.7,0.1-13-2.9-18.5l4.1-1.5c3.1,6,3.6,12.9,3.4,19.8L65.8,40.9z M70,13.6c-1-3.9-2.3-6.8-5.2-9.8l4.1-2
		c2.8,2.9,4.2,6.3,5.5,10L70,13.6z M98.7,36h-4.2v17.1H90v-17H86l-0.1,20.7h-4.6V31.6H93c1.1-1.5,1.8-3.3,2.1-4.7H79.7v-4.5H115v4.5
		H99.6c-0.4,1.6-0.8,3.7-1.4,4.7H112l0.1,18c0,2-0.3,3.5-1.6,4.7c-2,2-4.5,1.5-7.7,1.4l-1.5-4.6c0.9,0.1,3,0.3,4.5,0.1
		c1.5-0.2,1.6-0.9,1.6-2l0.1-13.1l-4.2,0.1v14.6l-4.4,0.1L98.7,36z M111.3,18.6l-29.7,0.1V5.6l4.7,0.1v8.5h7.8V1.6l4.7-0.1v12.7h7.9
		V5.5l4.6-0.1L111.3,18.6z"/>
	<path class="st0" d="M148.6,13.8c-0.5,1.8-2.3,5.3-3.9,7.2l7.9-0.1l-0.1,4.5l-11.9-0.1l-0.1,4.5l9.8-0.1l-0.1,4.5l-9.8-0.1l0.1,2.5
		l1-1.2c3.3,2.1,6.6,4.9,9,8.1l-3.4,3.1c-2.3-3.1-4.6-5.3-6.6-6.6l-0.1,16.9h-4.7V41c-2.7,3.2-6.5,6.8-11.6,9.4
		c-0.9-1.4-1.7-2.3-2.8-3.7c5.9-2.8,11.1-8,13.9-12.3h-9.5l0.1-4.5l9.9,0.1v-4.5h-12l-0.1-4.5l8.8,0.1c-0.8-2.1-3.7-5.5-5.6-7.3
		l3.4-1.7l-5-0.1V7.7l10.1-0.1c-0.6-1-1.9-2.6-3.8-4.6l4.4-2.1c1.9,2.3,3.8,4.9,4.4,6.8h10.4l-0.1,4.4h-5.7L148.6,13.8z M131.5,12
		c2.9,3,4.5,6,5.8,9h2.5c2-2.6,3.4-5.5,4.7-9H131.5z M158.7,32.1c0,8.3-2.7,17.6-7.4,24.3l-4.1-3.1c5.3-7.6,6.8-15.8,6.8-25.3V7.3
		c6.8-0.7,12.7-2.6,18.5-5.8l2.9,3.9c-5.5,3.3-11.3,4.7-16.7,5.5v9h17.7v4.4h-6.9v32.1h-4.7l-0.1-32.1h-6V32.1z"/>
	<path class="st0" d="M203,6.5v41.9h-4.7l0.1-4.5h-7v4.6h-4.7V6.5L203,6.5z M198.4,10.8h-6.9v11.7h6.9V10.8z M198.4,39.7l0.1-12.8
		h-6.9v12.8H198.4z M229.3,51.7c0,2.3-2.3,5-4.9,5h-6.8c-0.5-1.7-0.9-2.9-1.6-4.8c2.8,0.2,4.8,0.5,6.9,0.3c0.7,0.1,1.4-0.6,1.4-1.4
		l-0.1-14.7h-19.8v-4.4l19.8-0.1l0.1-5.4l5-0.1v5.5l8.7-0.1v4.4h-8.7L229.3,51.7z M236.8,20.8v4.4L205,25.1l-0.1-4.3l13.2-0.1v-8
		H207V8.4l11.1,0.1V1.1h4.9l0.1,7.3h11.4v4.4h-11.3v8L236.8,20.8z M211,37.5c4.2,1.9,7.8,6.4,9.2,9.3l-3.9,3.2
		c-2.1-4.2-5.8-8-9.2-9.3L211,37.5z"/>
	<path class="st0" d="M264.6,3.5c-1.6,4.9-3.4,9.8-5.5,14.1v39.2h-4.7V25.2c-1.3,1.8-3.8,4.8-6.5,7.9l-3.9-2.9
		c9.8-10.7,12-16.7,16.3-28.5L264.6,3.5z M300,43.1c-0.7,3.9-1.8,7.5-3.4,10.9c-0.9,1.4-2.5,2.3-4.2,2.2c-3.4-0.6-6.2-2.6-8.6-5
		c-6.8-6.9-9.4-15.6-10.5-25.1l-10.6,0.9l-0.6-4.6c4.1-0.3,7.6-0.7,10.6-0.9c-0.5-6.1-1-12.8-1-19.8l4.9,0.1
		c0.2,7.4,0.4,14.2,1.1,19.3c5.7-0.4,12-1,18.7-1.7l0.5,4.5l-18.6,1.7c0.9,7.9,2.9,15.3,8.5,21.3c1.6,1.7,2.7,2.5,4.5,3.6
		c0.7,0.3,1.4,0.4,1.7-0.3c1.1-2.3,1.8-6.4,2.3-9.3L300,43.1z M290.3,17.2c-2.8-3.9-5.7-7.7-9.9-10.3l3.4-3.1
		c4.2,2.5,7.6,6.4,10.3,10.3L290.3,17.2z"/>
</g>
<g>
	<path class="st1" d="M2.1,85.6c0.4,0,0.9,0.1,1.4,0.1c0.5,0,0.8,0,1.6,0c1.2-1.3,2.1-2.7,2.7-3.9H3c-0.9,0-1.5,0-2.1,0.1v-1
		c0.6,0.1,1.2,0.1,2.1,0.1h15.1c0.9,0,1.5,0,2.1-0.1v1c-0.6-0.1-1.2-0.1-2.1-0.1H8.9c-0.9,1.5-1.7,2.7-2.7,3.8
		c5.8-0.3,6.1-0.4,9.3-0.8c-0.8-0.7-1.2-1-2.4-1.9l0.7-0.5c2,1.4,3,2.4,4.7,4.2l-0.7,0.6c-0.7-0.9-1-1.2-1.6-1.8
		c-3.5,0.5-3.5,0.5-6.8,0.8c-1.6,0.2-2.4,0.2-4.7,0.3c-1.1,0.1-1.1,0.1-1.3,0.1c-0.6,0-0.7,0-1,0.1L2.1,85.6z M4.9,69.1
		c-0.9,0-1.5,0-2.1,0.1v-1c0.7,0.1,1.3,0.1,2.1,0.1h11.2c0.9,0,1.4,0,2-0.1v1c-0.6-0.1-1.1-0.1-2-0.1h-5.5V71h6.7
		c1.1,0,1.7,0,2.2-0.1c-0.1,0.5-0.1,0.9-0.1,1.6V74c0,0.7,0,1.1,0.1,1.6h-1v-3.9h-8v3.4c0,1.1,0,1.5,0.1,2.2H9.6
		c0.1-0.6,0.1-1.1,0.1-2.2v-3.4H2.2v3.9h-1c0.1-0.5,0.1-1,0.1-1.6v-1.6c0-0.6,0-1-0.1-1.6C1.8,71,2.4,71,3.5,71h6.3v-1.9H4.9z
		 M3,78.1c0.7,0.1,1.3,0.1,2.1,0.1h10.5c0.9,0,1.4,0,2-0.1v1c-0.6-0.1-1.1-0.1-2-0.1H5.1c-0.9,0-1.5,0-2.1,0.1V78.1z M8.4,74
		C8,74,7.6,73.9,7,73.9H5c-0.6,0-1,0-1.4,0.1v-0.9c0.4,0.1,0.8,0.1,1.4,0.1H7c0.6,0,1,0,1.3-0.1V74z M8.4,76.3
		C8,76.2,7.6,76.2,7,76.2H5c-0.6,0-1,0-1.4,0.1v-0.9c0.4,0.1,0.8,0.1,1.4,0.1H7c0.6,0,1,0,1.3-0.1V76.3z M17.3,74
		c-0.4-0.1-0.8-0.1-1.4-0.1h-2.4c-0.6,0-1,0-1.4,0.1v-0.9c0.4,0.1,0.8,0.1,1.4,0.1h2.4c0.6,0,1,0,1.4-0.1V74z M17.3,76.3
		c-0.4-0.1-0.8-0.1-1.4-0.1h-2.4c-0.6,0-1,0-1.4,0.1v-0.9c0.4,0.1,0.8,0.1,1.4,0.1h2.4c0.6,0,1,0,1.4-0.1V76.3z"/>
	<path class="st1" d="M32.2,73.7c-0.1,0.2-0.1,0.4-0.2,1.1c-0.3,2.5-0.7,4.6-1.5,7.8c0.8-0.3,1.1-0.4,2.2-0.8l0,0.9
		c-1.8,0.7-4,1.4-5.6,1.9c-0.2,0.1-0.5,0.2-0.7,0.3l-0.3-1c0.7,0,1.8-0.3,3.7-0.9c0.9-3.9,1.1-5.2,1.3-7.6c0.1-0.9,0.1-1.2,0.1-1.8
		L32.2,73.7z M31.4,71.6c0.7,0,1.1,0,1.4-0.1v1c-0.3-0.1-0.8-0.1-1.4-0.1h-3.6c-0.6,0-1.1,0-1.5,0.1v-1c0.3,0.1,0.8,0.1,1.5,0.1h1.4
		v-2.2c0-0.7,0-1.3-0.1-1.6h1.2c-0.1,0.4-0.1,0.8-0.1,1.6v2.2H31.4z M28,81.6c-0.2-3.5-0.4-5.1-1-7.8l0.9-0.2c0.6,2.9,0.8,4.4,1,7.8
		L28,81.6z M37.4,78.4c0.6-1.1,0.9-1.7,1.3-2.6H35c-1.2,0-1.6,0-2.2,0.1v-1c0.5,0.1,1,0.1,2.2,0.1h8.4c1.1,0,1.7,0,2.2-0.1v1
		c-0.6-0.1-1.2-0.1-2.2-0.1h-3.8c-0.4,1-0.7,1.5-1.3,2.6h4.5c1,0,1.6,0,2.3-0.1c-0.1,0.5-0.1,1.2-0.1,2.2v5.3c0,0.9-0.3,1.2-1.3,1.2
		c-0.4,0-1,0-1.5-0.1c-0.1-0.4-0.1-0.5-0.2-0.9c1,0.1,1.3,0.2,1.7,0.2c0.3,0,0.5-0.1,0.5-0.5v-6.5h-2.7v5.1c0,0.9,0,1.5,0.1,2.1h-1
		c0.1-0.5,0.1-1.1,0.1-2.1v-5.1h-2.6v5.1c0,1,0,1.6,0.1,2.1h-1.1c0.1-0.5,0.1-1.1,0.1-2.1v-5.1h-2.5v5.6c0,1.2,0,1.8,0.1,2.4h-1.1
		c0.1-0.5,0.1-1.2,0.1-2.4v-4.3c0-0.8,0-1.6-0.1-2.2c0.9,0.1,1.6,0.1,2.4,0.1H37.4z M38.7,69.2c0-0.8,0-1.2-0.1-1.7h1.1
		c-0.1,0.4-0.1,0.9-0.1,1.7V72h4v-2c0-0.6,0-1-0.1-1.5h1.1c-0.1,0.4-0.1,0.8-0.1,1.5v1.6c0,0.5,0,0.8,0.1,1.2c-1.1,0-1.2,0-1.7,0
		h-7.1c-0.9,0-1.1,0-1.6,0c0-0.6,0-0.9,0-1.2v-1.5c0-0.6,0-1.1-0.1-1.6h1.1C35,68.9,35,69.4,35,70.1V72h3.7V69.2z"/>
	<path class="st1" d="M87.3,80.1l-1.2,3c-0.3,0.7-0.5,1.5-0.7,2.2h-1.6c0.5-0.8,0.6-1,1.2-2.5l4.9-11.8c0.4-1,0.6-1.5,0.7-2h1.4
		c0.1,0.4,0.2,0.7,0.7,2l4.9,11.8c0.5,1.3,0.8,1.9,1.2,2.5h-1.6c-0.2-0.7-0.4-1.5-0.7-2.2l-1.2-3H87.3z M91.8,71.5
		c-0.1-0.2-0.2-0.5-0.5-1.5c-0.2,0.6-0.4,1-0.5,1.3c0,0.1,0,0.1,0,0.1l-3,7.5h7.1L91.8,71.5z"/>
	<path class="st1" d="M106,69.1c-0.1,0.7-0.2,1.3-0.2,2.3V83c0,1,0,1.5,0.2,2.3h-1.5c0.1-0.7,0.2-1.3,0.2-2.3V71.4
		c0-0.9,0-1.5-0.2-2.3H106z"/>
	<path class="st1" d="M151.6,70.3c-0.1,1.3-0.1,1.8-0.3,2.5h2.6c0.8,0,1.3,0,1.9-0.1v1c-0.6-0.1-1.2-0.1-1.9-0.1h-2.8
		c0.2,0.3,0.4,0.5,0.5,0.6c1,1.1,2.1,1.9,3.6,2.5c-0.2,0.2-0.4,0.5-0.6,0.8c-1.9-1-2.8-1.8-3.8-3.1c-0.9,2.1-2.3,3.4-4.5,4.6
		c-0.2-0.3-0.4-0.4-0.7-0.7c1.5-0.6,2.4-1.3,3.3-2.3c0.6-0.7,1.1-1.5,1.3-2.4h-2.6c-0.8,0-1.6,0-2,0.1v-1c0.4,0.1,1.2,0.1,2,0.1h2.8
		c0.2-1.1,0.2-1.5,0.3-2.5h-2.4c-0.6,0.8-0.8,1.1-1.6,1.7c-0.2-0.3-0.4-0.4-0.7-0.5c1.4-1.1,2.3-2.4,2.8-4.1l0.9,0.4
		c-0.1,0.2-0.2,0.3-0.4,0.8c-0.2,0.4-0.3,0.6-0.5,1h4.4c0.8,0,1.5,0,2-0.1v1c-0.6-0.1-1.2-0.1-1.9-0.1H151.6z M149,80.5
		c0-1.2,0-1.7-0.1-2.4c0.7,0.1,1.3,0.1,2.4,0.1h7.8c1,0,1.7,0,2.4-0.1c-0.1,0.6-0.1,1.1-0.1,2.4V85c0,1,0,1.6,0.1,2.1h-1V86h-10.6
		v1.1h-1c0.1-0.6,0.1-1.1,0.1-2.1V80.5z M149.9,79v2.6h10.6V79H149.9z M149.9,82.3v2.9h10.6v-2.9H149.9z M158.3,76.6
		c-0.7,0-1.2,0-1.8,0.1c0.1-0.6,0.1-1,0.1-1.6v-4.2c0-0.7,0-1.2-0.1-1.8c0.5,0.1,1,0.1,1.8,0.1h3.6c0.7,0,1.2,0,1.8-0.1
		c-0.1,0.5-0.1,1-0.1,1.7V75c0,0.6,0,1.1,0.1,1.7c-0.5-0.1-1.1-0.1-1.8-0.1H158.3z M157.4,75.8h5.2V70h-5.2V75.8z"/>
	<path class="st1" d="M171.2,85.8c1.5-1.3,2.1-2.1,2.9-4l0.7,0.5c-0.8,1.9-1.4,2.8-2.9,4.1L171.2,85.8z M176.6,73.4
		c1.2-0.1,1.8-0.1,3.2-0.2l-0.1,0.7c-1,0.1-1,0.1-3.2,0.2c0,0.5,0,0.8,0.1,1.3h-1c0.1-0.3,0.1-0.6,0.1-1.2c-1,0-1.9,0.1-2.4,0.1
		c-1.1,0-1.4,0.1-1.8,0.1l-0.2-0.9c0.5,0,0.8,0.1,1.2,0.1c0.5,0,1.5,0,3.2-0.1v-1.5h-2.2c-0.8,0-1.2,0-1.7,0.1V71
		c0.5,0.1,0.9,0.1,1.7,0.1h2.2v-1.4h-2.6c-0.8,0-1.2,0-1.7,0.1V69c0.5,0.1,0.9,0.1,1.7,0.1h2.6c0-0.7,0-1-0.1-1.5h1
		c-0.1,0.5-0.1,1-0.1,1.5h1.8c0.8,0,1.2,0,1.7-0.1v0.9c-0.5-0.1-0.9-0.1-1.7-0.1h-1.8v1.4h1.3c0.8,0,1.2,0,1.7-0.1V72
		c-0.5-0.1-0.9-0.1-1.7-0.1h-1.3V73.4z M186.6,75.9c0.8,0,1.2,0,1.6-0.1c0,0.4-0.1,0.8-0.1,1.6v2.1c0,0.7,0,1.2,0.1,1.6
		c-0.5,0-0.9-0.1-1.6-0.1h-12.3c-0.8,0-1.2,0-1.7,0.1v-0.9c0.5,0.1,0.9,0.1,1.7,0.1h13v-1.6H175c-0.8,0-1.2,0-1.7,0.1v-0.9
		c0.5,0.1,0.9,0.1,1.7,0.1h12.3v-1.4h-12.8c-0.8,0-1.2,0-1.7,0.1v-0.9c0.5,0.1,0.9,0.1,1.7,0.1H186.6z M177.8,85.3
		c0,0.5,0.5,0.6,3.5,0.6c2.7,0,3.5-0.1,3.8-0.6c0.2-0.3,0.3-0.9,0.3-2c0.4,0.2,0.6,0.3,0.9,0.4c-0.3,2.8-0.5,2.9-4.9,2.9
		c-2,0-2.8,0-3.5-0.2c-0.8-0.2-1-0.4-1-1.2v-2c0-0.7,0-1.1-0.1-1.6h1.1c-0.1,0.5-0.1,0.9-0.1,1.6V85.3z M182.5,84.6
		c-1-1.2-1.7-1.8-2.8-2.6l0.6-0.5c1.2,0.8,1.9,1.4,2.9,2.5L182.5,84.6z M188.4,73.4c0.8,0,1.3,0,1.8-0.1v0.9
		c-0.5-0.1-0.9-0.1-1.8-0.1h-2.9c0,0.5,0,0.8,0.1,1.2h-1c0.1-0.3,0.1-0.6,0.1-1.2h-2.3c-0.8,0-1.2,0-1.8,0.1v-0.9
		c0.5,0.1,0.9,0.1,1.8,0.1h2.3v-1.5H183c-0.8,0-1.2,0-1.7,0.1v-0.9c0.5,0.1,0.9,0.1,1.7,0.1h1.7v-1.4h-2.1c-0.8,0-1.2,0-1.7,0.1V69
		c0.5,0.1,0.9,0.1,1.7,0.1h2.1c0-0.7,0-1-0.1-1.5h1c-0.1,0.5-0.1,1-0.1,1.5h2.7c0.8,0,1.2,0,1.7-0.1v0.9c-0.5-0.1-0.9-0.1-1.7-0.1
		h-2.7v1.4h2.3c0.8,0,1.2,0,1.7-0.1V72c-0.5-0.1-0.9-0.1-1.7-0.1h-2.3v1.5H188.4z M189.8,86.4c-1-1.7-1.8-2.7-3.1-3.9l0.7-0.4
		c1.3,1.3,2.1,2.2,3.1,3.8L189.8,86.4z"/>
	<path class="st1" d="M200.1,80.9c0.9-0.5,1.2-0.7,2.2-1.4l0.2,0.9c-1.8,1.2-2.7,1.7-4.9,2.8c-0.3,0.1-0.5,0.3-0.8,0.4l-0.4-1
		c0.5-0.1,1.7-0.6,2.9-1.2v-7.2h-0.6c-0.7,0-1.3,0-2,0.1v-1c0.6,0.1,1.2,0.1,2,0.1h0.6V70c0-0.9,0-1.8-0.1-2.4h1.2
		c-0.1,0.7-0.1,1.4-0.1,2.4v3.4h0.5c0.9,0,1.4,0,1.9-0.1v1c-0.7-0.1-1.3-0.1-1.9-0.1h-0.4V80.9z M210.6,72.2c0.1,3,0.5,5.4,1.1,7.8
		c1-1.8,1.8-3.7,2.1-5.2l1,0.4c-0.3,0.7-0.3,0.8-0.6,1.4c-0.7,1.8-1.3,3-2.2,4.4c0.5,1.5,0.9,2.4,1.5,3.3c0.5,0.8,0.9,1.2,1.2,1.2
		c0.3,0,0.6-1.2,0.8-3.3c0.3,0.3,0.6,0.5,0.9,0.6c-0.3,2.6-0.8,3.7-1.5,3.7c-1,0-2.4-1.9-3.4-4.6c-1.5,2-2.9,3.3-5,4.6
		c-0.2-0.3-0.4-0.5-0.7-0.7c2.4-1.4,4-2.8,5.4-4.9c-0.8-2.5-1.2-5.2-1.4-8.8h-5.4v1.3c0,0.8,0,1.3,0,2.2h2.3c0.8,0,1.5,0,2-0.1
		c0,0.3,0,0.3-0.2,2.5c-0.1,1.2-0.3,2.6-0.4,3.4c-0.3,1.1-0.7,1.4-1.9,1.4c-0.5,0-1.1,0-1.7-0.1c0-0.3,0-0.6-0.2-0.9
		c0.7,0.1,1.3,0.2,1.9,0.2c0.5,0,0.8-0.2,1-0.5c0.3-1,0.5-2.5,0.5-5h-3.4c-0.3,5-1.1,7.8-3,10.2c-0.2-0.2-0.5-0.4-0.8-0.5
		c0.8-0.9,1.3-1.6,1.7-2.7c0.8-2,1.3-5.2,1.3-9.5c0-1.1,0-1.9-0.1-2.5c0.4,0.1,1.2,0.1,2.1,0.1h4.2c0-1,0-1.5,0-2.4
		c0-0.6,0-0.9-0.1-1.4h1.1c-0.1,0.5-0.1,0.9-0.1,1.8c0,0.7,0,1,0,2h2.8c1,0,1.8,0,2.3-0.1v1c-0.7-0.1-1.4-0.1-2.2-0.1H210.6z
		 M214.3,70.7c-0.8-1-1.4-1.5-2.5-2.3l0.5-0.5c1,0.7,1.6,1.1,2.6,2.2L214.3,70.7z"/>
	<path class="st1" d="M230.9,69.5c0-0.7,0-1.4-0.2-2h1.2c-0.1,0.6-0.2,1.2-0.2,2V71h7.1c1.1,0,1.7,0,2.4-0.2V72
		c-0.5-0.1-1.2-0.1-2.4-0.1h-14.6c-1.1,0-1.7,0-2.3,0.1v-1.1c0.6,0.1,1.3,0.2,2.3,0.2h6.5V69.5z M225.3,76v6.7c0,1,0,1.6,0.1,2.2
		h-1.2c0.1-0.7,0.1-1.3,0.1-2.2v-5.9c0-0.7,0-1.2-0.1-1.7c0.6,0.1,1.2,0.1,2,0.1h4.6v-0.9c0-0.8,0-1.2-0.1-1.8h1.2
		c-0.1,0.5-0.1,1-0.1,1.8v0.9h5.2c0.8,0,1.4,0,2-0.1c-0.1,0.5-0.1,1-0.1,1.7V83c0,1.2-0.3,1.5-1.7,1.5c-0.8,0-1.5,0-2.4-0.1
		c-0.1-0.5-0.1-0.7-0.3-1c1.1,0.2,1.9,0.3,2.6,0.3c0.7,0,0.9-0.1,0.9-0.6v-7h-6.2v8.9c0,0.8,0,1.5,0.2,2.2h-1.2
		c0.1-0.7,0.2-1.4,0.2-2.2V76H225.3z"/>
</g>
<g>
	<path class="st1" d="M62.6,74c-0.2-0.2-0.5-0.7-1.1-1.4h1.4c0.2,0.4,0.4,0.6,0.7,1.1l2.1,2.7l2.1-2.7c0.3-0.4,0.6-0.8,0.7-1.1h1.3
		c-0.3,0.4-0.7,0.8-1.2,1.4l-2.4,3l2.5,3.1c0.3,0.3,0.6,0.8,1.4,1.7h-1.4c-0.2-0.4-0.4-0.7-0.9-1.2l-2.3-2.9l-2.4,3.1
		c-0.3,0.4-0.5,0.7-0.7,1.1h-1.4c1-1.3,1-1.3,1.2-1.5l2.6-3.3L62.6,74z"/>
</g>
<g>
	<path class="st1" d="M124.7,74c-0.2-0.2-0.5-0.7-1.1-1.4h1.4c0.2,0.4,0.4,0.6,0.7,1.1l2.1,2.7l2.1-2.7c0.3-0.4,0.6-0.8,0.7-1.1h1.3
		c-0.3,0.4-0.7,0.8-1.2,1.4l-2.4,3l2.5,3.1c0.3,0.3,0.6,0.8,1.4,1.7h-1.4c-0.2-0.4-0.4-0.7-0.9-1.2l-2.3-2.9l-2.4,3.1
		c-0.3,0.4-0.5,0.7-0.7,1.1h-1.4c1-1.3,1-1.3,1.2-1.5l2.6-3.3L124.7,74z"/>
</g>
</svg>
